<mxfile host="65bd71144e">
    <diagram id="inei6K_ikqvNOrcYAao8" name="第1頁">
        <mxGraphModel dx="684" dy="581" grid="1" gridSize="10" guides="1" tooltips="1" connect="1" arrows="1" fold="1" page="1" pageScale="1" pageWidth="827" pageHeight="1169" math="0" shadow="0">
            <root>
                <mxCell id="0"/>
                <mxCell id="1" parent="0"/>
                <mxCell id="7" value="Customer" style="html=1;" vertex="1" parent="1">
                    <mxGeometry x="40" y="40" width="110" height="50" as="geometry"/>
                </mxCell>
                <mxCell id="8" value="Employee" style="swimlane;fontStyle=1;align=center;verticalAlign=top;childLayout=stackLayout;horizontal=1;startSize=26;horizontalStack=0;resizeParent=1;resizeParentMax=0;resizeLast=0;collapsible=1;marginBottom=0;" vertex="1" parent="1">
                    <mxGeometry x="210" y="40" width="160" height="104" as="geometry"/>
                </mxCell>
                <mxCell id="9" value="employeeID" style="text;align=left;verticalAlign=top;spacingLeft=4;spacingRight=4;overflow=hidden;rotatable=0;points=[[0,0.5],[1,0.5]];portConstraint=eastwest;" vertex="1" parent="8">
                    <mxGeometry y="26" width="160" height="26" as="geometry"/>
                </mxCell>
                <mxCell id="26" value="employeeName" style="text;align=left;verticalAlign=top;spacingLeft=4;spacingRight=4;overflow=hidden;rotatable=0;points=[[0,0.5],[1,0.5]];portConstraint=eastwest;" vertex="1" parent="8">
                    <mxGeometry y="52" width="160" height="26" as="geometry"/>
                </mxCell>
                <mxCell id="27" value="salary" style="text;align=left;verticalAlign=top;spacingLeft=4;spacingRight=4;overflow=hidden;rotatable=0;points=[[0,0.5],[1,0.5]];portConstraint=eastwest;" vertex="1" parent="8">
                    <mxGeometry y="78" width="160" height="26" as="geometry"/>
                </mxCell>
                <mxCell id="21" value="Student" style="swimlane;fontStyle=1;align=center;verticalAlign=top;childLayout=stackLayout;horizontal=1;startSize=26;horizontalStack=0;resizeParent=1;resizeParentMax=0;resizeLast=0;collapsible=1;marginBottom=0;" vertex="1" parent="1">
                    <mxGeometry x="440" y="40" width="160" height="164" as="geometry"/>
                </mxCell>
                <mxCell id="22" value="studentID" style="text;align=left;verticalAlign=top;spacingLeft=4;spacingRight=4;overflow=hidden;rotatable=0;points=[[0,0.5],[1,0.5]];portConstraint=eastwest;" vertex="1" parent="21">
                    <mxGeometry y="26" width="160" height="26" as="geometry"/>
                </mxCell>
                <mxCell id="28" value="studentName" style="text;align=left;verticalAlign=top;spacingLeft=4;spacingRight=4;overflow=hidden;rotatable=0;points=[[0,0.5],[1,0.5]];portConstraint=eastwest;" vertex="1" parent="21">
                    <mxGeometry y="52" width="160" height="26" as="geometry"/>
                </mxCell>
                <mxCell id="25" value="studentAddr" style="text;align=left;verticalAlign=top;spacingLeft=4;spacingRight=4;overflow=hidden;rotatable=0;points=[[0,0.5],[1,0.5]];portConstraint=eastwest;" vertex="1" parent="21">
                    <mxGeometry y="78" width="160" height="26" as="geometry"/>
                </mxCell>
                <mxCell id="23" value="" style="line;strokeWidth=1;fillColor=none;align=left;verticalAlign=middle;spacingTop=-1;spacingLeft=3;spacingRight=3;rotatable=0;labelPosition=right;points=[];portConstraint=eastwest;strokeColor=inherit;" vertex="1" parent="21">
                    <mxGeometry y="104" width="160" height="8" as="geometry"/>
                </mxCell>
                <mxCell id="24" value="student()" style="text;align=left;verticalAlign=top;spacingLeft=4;spacingRight=4;overflow=hidden;rotatable=0;points=[[0,0.5],[1,0.5]];portConstraint=eastwest;" vertex="1" parent="21">
                    <mxGeometry y="112" width="160" height="26" as="geometry"/>
                </mxCell>
                <mxCell id="29" value="getStudentRec()" style="text;align=left;verticalAlign=top;spacingLeft=4;spacingRight=4;overflow=hidden;rotatable=0;points=[[0,0.5],[1,0.5]];portConstraint=eastwest;" vertex="1" parent="21">
                    <mxGeometry y="138" width="160" height="26" as="geometry"/>
                </mxCell>
            </root>
        </mxGraphModel>
    </diagram>
    <diagram id="J9Jb42zlQwz1UztSHnLR" name="第2頁">
        <mxGraphModel dx="785" dy="484" grid="1" gridSize="10" guides="1" tooltips="1" connect="1" arrows="1" fold="1" page="1" pageScale="1" pageWidth="827" pageHeight="1169" math="0" shadow="0">
            <root>
                <mxCell id="0"/>
                <mxCell id="1" parent="0"/>
                <mxCell id="Za2852TQYUXSVsiaXlMs-3" style="edgeStyle=none;html=1;exitX=1;exitY=0.5;exitDx=0;exitDy=0;entryX=0;entryY=0.5;entryDx=0;entryDy=0;endArrow=none;endFill=0;" edge="1" parent="1" source="Za2852TQYUXSVsiaXlMs-1" target="Za2852TQYUXSVsiaXlMs-2">
                    <mxGeometry relative="1" as="geometry"/>
                </mxCell>
                <mxCell id="Za2852TQYUXSVsiaXlMs-7" value="1" style="edgeLabel;html=1;align=center;verticalAlign=top;resizable=0;points=[];" vertex="1" connectable="0" parent="Za2852TQYUXSVsiaXlMs-3">
                    <mxGeometry x="-0.8965" relative="1" as="geometry">
                        <mxPoint as="offset"/>
                    </mxGeometry>
                </mxCell>
                <mxCell id="Za2852TQYUXSVsiaXlMs-8" value="1..*" style="edgeLabel;html=1;align=center;verticalAlign=top;resizable=0;points=[];" vertex="1" connectable="0" parent="Za2852TQYUXSVsiaXlMs-3">
                    <mxGeometry x="0.8969" y="-3" relative="1" as="geometry">
                        <mxPoint as="offset"/>
                    </mxGeometry>
                </mxCell>
                <mxCell id="Za2852TQYUXSVsiaXlMs-9" value="教導" style="edgeLabel;html=1;align=center;verticalAlign=bottom;resizable=0;points=[];fontSize=16;" vertex="1" connectable="0" parent="Za2852TQYUXSVsiaXlMs-3">
                    <mxGeometry x="0.0769" relative="1" as="geometry">
                        <mxPoint as="offset"/>
                    </mxGeometry>
                </mxCell>
                <mxCell id="Za2852TQYUXSVsiaXlMs-1" value="老師" style="html=1;" vertex="1" parent="1">
                    <mxGeometry x="120" y="160" width="110" height="50" as="geometry"/>
                </mxCell>
                <mxCell id="Za2852TQYUXSVsiaXlMs-2" value="學生" style="html=1;" vertex="1" parent="1">
                    <mxGeometry x="480" y="160" width="110" height="50" as="geometry"/>
                </mxCell>
                <mxCell id="Za2852TQYUXSVsiaXlMs-10" value="" style="triangle;whiteSpace=wrap;html=1;" vertex="1" parent="1">
                    <mxGeometry x="420" y="160" width="20" height="20" as="geometry"/>
                </mxCell>
            </root>
        </mxGraphModel>
    </diagram>
</mxfile>